<svg xmlns="http://www.w3.org/2000/svg" viewBox="0 0 1920 1080" width="1920" height="1080">
  <defs>
    <linearGradient id="bg" x1="0%" y1="0%" x2="100%" y2="100%">
      <stop offset="0%" stop-color="#0f172a"/>
      <stop offset="100%" stop-color="#1e293b"/>
    </linearGradient>
    <linearGradient id="accent" x1="0%" y1="0%" x2="100%" y2="100%">
      <stop offset="0%" stop-color="#06b6d4"/>
      <stop offset="100%" stop-color="#6366f1"/>
    </linearGradient>
    <filter id="bgBlur"><feGaussianBlur stdDeviation="120"/></filter>
    <filter id="glow">
      <feGaussianBlur stdDeviation="20" result="b"/>
      <feMerge><feMergeNode in="b"/><feMergeNode in="SourceGraphic"/></feMerge>
    </filter>
    <radialGradient id="vignette" cx="50%" cy="45%" r="70%">
      <stop offset="40%" stop-color="#000" stop-opacity="0"/>
      <stop offset="100%" stop-color="#000" stop-opacity="0.35"/>
    </radialGradient>
  </defs>

  <rect width="1920" height="1080" fill="url(#bg)"/>

  <circle cx="350" cy="300" r="280" fill="#06b6d4" opacity="0.05" filter="url(#bgBlur)"/>
  <circle cx="1500" cy="700" r="250" fill="#22c55e" opacity="0.04" filter="url(#bgBlur)"/>

  <!-- Logo -->
  <g transform="translate(150, 55)">
    <polygon points="0,-48 84,-24 84,24 0,48 -84,24 -84,-24" fill="none" stroke="url(#accent)" stroke-width="2" opacity="0.35"/>
    <circle cx="0" cy="0" r="22" fill="url(#accent)" filter="url(#glow)"/>
    <circle cx="0" cy="0" r="9" fill="#ffffff" opacity="0.9"/>
  </g>
  <text x="150" y="120" font-family="'Segoe UI','Helvetica Neue',Arial,sans-serif" font-size="15" font-weight="700" fill="#ffffff" letter-spacing="3" text-anchor="middle">CONTEXTUAL INTELLIGENCE</text>
  <text x="150" y="138" font-family="'Segoe UI',Arial,sans-serif" font-size="16" fill="#94a3b8" text-anchor="middle">orsd.contextual-intelligence.org</text>
  <line x1="70" y1="148" x2="230" y2="148" stroke="#94a3b8" stroke-width="0.5" opacity="0.3"/>

  <!-- Title -->
  <text x="960" y="70" font-family="'Segoe UI','Helvetica Neue',Arial,sans-serif" font-size="56" font-weight="700" fill="#ffffff" letter-spacing="8" text-anchor="middle">KOSTENSTRUKTUR</text>
  <rect x="800" y="85" width="320" height="2" fill="url(#accent)" rx="1"/>

  <!-- Separator lines -->
  <line x1="420" y1="120" x2="420" y2="1000" stroke="url(#accent)" stroke-width="1" opacity="0.15"/>
  <line x1="1500" y1="120" x2="1500" y2="1000" stroke="url(#accent)" stroke-width="1" opacity="0.15"/>

  <!-- LEFT: KOSTEN Y1 -->
  <text x="245" y="180" font-family="'Segoe UI',Arial,sans-serif" font-size="22" font-weight="700" fill="#06b6d4" letter-spacing="3" text-anchor="middle">KOSTEN Y1</text>
  <line x1="150" y1="200" x2="340" y2="200" stroke="#06b6d4" stroke-width="0.5" opacity="0.3"/>

  <text x="150" y="270" font-family="'Segoe UI',Arial,sans-serif" font-size="22" fill="#e2e8f0">LLM-Inferenz</text>
  <text x="380" y="270" font-family="'Segoe UI',Arial,sans-serif" font-size="22" fill="#cbd5e1" text-anchor="end">~€300</text>
  <rect x="150" y="285" width="230" height="5" rx="2" fill="#1e293b"/>
  <rect x="150" y="283.5" width="69" height="8" rx="2" fill="url(#accent)"/>

  <text x="150" y="345" font-family="'Segoe UI',Arial,sans-serif" font-size="22" fill="#e2e8f0">Hosting</text>
  <text x="380" y="345" font-family="'Segoe UI',Arial,sans-serif" font-size="22" fill="#cbd5e1" text-anchor="end">~€225</text>
  <rect x="150" y="360" width="230" height="5" rx="2" fill="#1e293b"/>
  <rect x="150" y="358.5" width="52" height="8" rx="2" fill="#6366f1"/>

  <text x="150" y="420" font-family="'Segoe UI',Arial,sans-serif" font-size="22" fill="#e2e8f0">API-Kosten</text>
  <text x="380" y="420" font-family="'Segoe UI',Arial,sans-serif" font-size="22" fill="#cbd5e1" text-anchor="end">~€120</text>
  <rect x="150" y="435" width="230" height="5" rx="2" fill="#1e293b"/>
  <rect x="150" y="433.5" width="28" height="8" rx="2" fill="#06b6d4"/>

  <text x="150" y="495" font-family="'Segoe UI',Arial,sans-serif" font-size="22" fill="#e2e8f0">Entwicklung</text>
  <text x="380" y="495" font-family="'Segoe UI',Arial,sans-serif" font-size="22" fill="#cbd5e1" text-anchor="end">~€300</text>
  <rect x="150" y="510" width="230" height="5" rx="2" fill="#1e293b"/>
  <rect x="150" y="508.5" width="69" height="8" rx="2" fill="#6366f1" opacity="0.6"/>

  <text x="150" y="570" font-family="'Segoe UI',Arial,sans-serif" font-size="22" fill="#e2e8f0">Marketing</text>
  <text x="380" y="570" font-family="'Segoe UI',Arial,sans-serif" font-size="22" fill="#cbd5e1" text-anchor="end">~€150</text>
  <rect x="150" y="585" width="230" height="5" rx="2" fill="#1e293b"/>
  <rect x="150" y="583.5" width="35" height="8" rx="2" fill="#06b6d4" opacity="0.5"/>

  <line x1="150" y1="620" x2="380" y2="620" stroke="#475569" stroke-width="0.5"/>

  <text x="150" y="680" font-family="'Segoe UI',Arial,sans-serif" font-size="20" fill="#94a3b8">Total Monthly Burn</text>
  <text x="380" y="720" font-family="'Segoe UI',Arial,sans-serif" font-size="36" font-weight="700" fill="#22c55e" text-anchor="end">€1.000–€2.000</text>

  <!-- RIGHT: METRIKEN -->
  <text x="1675" y="180" font-family="'Segoe UI',Arial,sans-serif" font-size="22" font-weight="700" fill="#22c55e" letter-spacing="3" text-anchor="middle">METRIKEN</text>
  <line x1="1580" y1="200" x2="1770" y2="200" stroke="#22c55e" stroke-width="0.5" opacity="0.3"/>

  <text x="1675" y="280" font-family="'Segoe UI',Arial,sans-serif" font-size="22" font-weight="700" fill="#22c55e" letter-spacing="2" text-anchor="middle">BREAK-EVEN</text>
  <text x="1675" y="335" font-family="'Segoe UI',Arial,sans-serif" font-size="36" font-weight="700" fill="#ffffff" text-anchor="middle">€1.500 / Monat</text>

  <line x1="1580" y1="365" x2="1770" y2="365" stroke="#475569" stroke-width="0.5" opacity="0.4"/>

  <text x="1675" y="420" font-family="'Segoe UI',Arial,sans-serif" font-size="22" font-weight="700" fill="#22c55e" text-anchor="middle">GROSS MARGIN</text>
  <text x="1675" y="480" font-family="'Segoe UI',Arial,sans-serif" font-size="44" font-weight="700" fill="#22c55e" text-anchor="middle">80%</text>

  <line x1="1580" y1="510" x2="1770" y2="510" stroke="#475569" stroke-width="0.5" opacity="0.4"/>

  <text x="1675" y="565" font-family="'Segoe UI',Arial,sans-serif" font-size="22" font-weight="700" fill="#06b6d4" text-anchor="middle">PROFITABEL AB</text>
  <text x="1675" y="625" font-family="'Segoe UI',Arial,sans-serif" font-size="44" font-weight="700" fill="#06b6d4" text-anchor="middle">Tag 1</text>

  <line x1="1580" y1="655" x2="1770" y2="655" stroke="#475569" stroke-width="0.5" opacity="0.4"/>

  <text x="1675" y="710" font-family="'Segoe UI',Arial,sans-serif" font-size="22" font-weight="700" fill="#22c55e" text-anchor="middle">BREAK-EVEN</text>
  <text x="1675" y="760" font-family="'Segoe UI',Arial,sans-serif" font-size="28" fill="#e2e8f0" text-anchor="middle">bei ~5 Kunden</text>

  <!-- Footer -->
  <text x="245" y="1040" font-family="'Segoe UI','Helvetica Neue',Arial,sans-serif" font-size="24" font-weight="600" fill="#cbd5e1" text-anchor="middle" letter-spacing="4">Self-Bootstrap</text>
  <text x="1680" y="1040" font-family="'Segoe UI','Helvetica Neue',Arial,sans-serif" font-size="24" font-weight="600" fill="#cbd5e1" text-anchor="middle" letter-spacing="4">Eigenfinanziert</text>

  <rect width="1920" height="1080" fill="url(#vignette)" pointer-events="none"/>
</svg>
