<svg xmlns="http://www.w3.org/2000/svg" viewBox="0 0 1920 1080" width="1920" height="1080">
  <defs>
    <linearGradient id="bg" x1="0%" y1="0%" x2="100%" y2="100%">
      <stop offset="0%" stop-color="#0f172a"/>
      <stop offset="100%" stop-color="#1e293b"/>
    </linearGradient>
    <linearGradient id="accent" x1="0%" y1="0%" x2="100%" y2="100%">
      <stop offset="0%" stop-color="#06b6d4"/>
      <stop offset="100%" stop-color="#6366f1"/>
    </linearGradient>
    <linearGradient id="cardGrad1" x1="0%" y1="0%" x2="0%" y2="100%">
      <stop offset="0%" stop-color="#06b6d4" stop-opacity="0.15"/>
      <stop offset="100%" stop-color="#06b6d4" stop-opacity="0.05"/>
    </linearGradient>
    <linearGradient id="cardGrad2" x1="0%" y1="0%" x2="0%" y2="100%">
      <stop offset="0%" stop-color="#6366f1" stop-opacity="0.15"/>
      <stop offset="100%" stop-color="#6366f1" stop-opacity="0.05"/>
    </linearGradient>
    <linearGradient id="cardGrad3" x1="0%" y1="0%" x2="100%" y2="100%">
      <stop offset="0%" stop-color="#06b6d4" stop-opacity="0.12"/>
      <stop offset="100%" stop-color="#6366f1" stop-opacity="0.08"/>
    </linearGradient>
    <filter id="glow"><feGaussianBlur stdDeviation="6" result="b"/><feMerge><feMergeNode in="b"/><feMergeNode in="SourceGraphic"/></feMerge></filter>
    <radialGradient id="vignette" cx="50%" cy="50%" r="75%">
      <stop offset="55%" stop-color="#000" stop-opacity="0"/>
      <stop offset="100%" stop-color="#000" stop-opacity="0.35"/>
    </radialGradient>
  </defs>

  <rect width="1920" height="1080" fill="url(#bg)"/>

  <g opacity="0.03" stroke="#ffffff" stroke-width="0.5">
    <line x1="0" y1="180" x2="1920" y2="180"/><line x1="0" y1="360" x2="1920" y2="360"/>
    <line x1="0" y1="540" x2="1920" y2="540"/><line x1="0" y1="720" x2="1920" y2="720"/>
    <line x1="0" y1="900" x2="1920" y2="900"/>
    <line x1="240" y1="0" x2="240" y2="1080"/><line x1="480" y1="0" x2="480" y2="1080"/>
    <line x1="720" y1="0" x2="720" y2="1080"/><line x1="960" y1="0" x2="960" y2="1080"/>
    <line x1="1200" y1="0" x2="1200" y2="1080"/><line x1="1440" y1="0" x2="1440" y2="1080"/>
    <line x1="1680" y1="0" x2="1680" y2="1080"/>
  </g>

  <rect x="0" y="0" width="1920" height="4" fill="url(#accent)"/>

  <g transform="translate(40, 30) scale(0.35)">
    <polygon points="140,0 260,75 260,225 140,300 20,225 20,75" fill="none" stroke="url(#accent)" stroke-width="3" opacity="0.25"/>
    <circle cx="140" cy="150" r="28" fill="url(#accent)" opacity="0.4"/>
    <circle cx="140" cy="150" r="10" fill="#ffffff" opacity="0.4"/>
    <circle cx="140" cy="55" r="12" fill="#06b6d4" opacity="0.4"/>
    <circle cx="225" cy="103" r="10" fill="#6366f1" opacity="0.3"/>
    <circle cx="225" cy="197" r="10" fill="#06b6d4" opacity="0.3"/>
    <circle cx="140" cy="245" r="12" fill="#6366f1" opacity="0.4"/>
    <circle cx="55" cy="197" r="10" fill="#06b6d4" opacity="0.3"/>
    <circle cx="55" cy="103" r="10" fill="#6366f1" opacity="0.3"/>
  </g>

  <text x="960" y="130" font-family="'Segoe UI','Helvetica Neue',Arial,sans-serif" font-size="60" font-weight="700" fill="#ffffff" letter-spacing="10" text-anchor="middle" filter="url(#glow)">MARKT &amp; ZIELGRUPPEN</text>
  <rect x="740" y="150" width="440" height="3" fill="url(#accent)" rx="1.5"/>

  <rect x="50" y="290" width="410" height="245" rx="12" fill="url(#cardGrad1)" stroke="#06b6d4" stroke-width="1" stroke-opacity="0.3"/>
  <circle cx="80" cy="325" r="14" fill="#06b6d4" opacity="0.3"/>
  <text x="80" y="331" font-family="'Segoe UI','Helvetica Neue',Arial,sans-serif" font-size="15" fill="#ffffff" text-anchor="middle" font-weight="700">M</text>
  <text x="108" y="331" font-family="'Segoe UI','Helvetica Neue',Arial,sans-serif" font-size="17" font-weight="600" fill="#e2e8f0">MedTech-Hersteller</text>
  <text x="75" y="370" font-family="'Segoe UI','Helvetica Neue',Arial,sans-serif" font-size="14" fill="#94a3b8">CE-Kennzeichnung · MDR-Transition</text>
  <text x="75" y="428" font-family="'Segoe UI','Helvetica Neue',Arial,sans-serif" font-size="13" fill="#06b6d4" font-weight="600">~3.000 in DACH</text>

  <rect x="50" y="565" width="410" height="245" rx="12" fill="url(#cardGrad2)" stroke="#6366f1" stroke-width="1" stroke-opacity="0.3"/>
  <circle cx="80" cy="600" r="14" fill="#6366f1" opacity="0.3"/>
  <text x="80" y="606" font-family="'Segoe UI','Helvetica Neue',Arial,sans-serif" font-size="15" fill="#ffffff" text-anchor="middle" font-weight="700">Z</text>
  <text x="108" y="606" font-family="'Segoe UI','Helvetica Neue',Arial,sans-serif" font-size="17" font-weight="600" fill="#e2e8f0">MedTech-Zulieferer</text>
  <text x="75" y="645" font-family="'Segoe UI','Helvetica Neue',Arial,sans-serif" font-size="14" fill="#94a3b8">Komponenten · OEM · Dienstleistungen</text>
  <text x="75" y="703" font-family="'Segoe UI','Helvetica Neue',Arial,sans-serif" font-size="13" fill="#6366f1" font-weight="600">~5.000 in DACH</text>

  <rect x="1460" y="290" width="410" height="245" rx="12" fill="url(#cardGrad1)" stroke="#06b6d4" stroke-width="1" stroke-opacity="0.3"/>
  <circle cx="1490" cy="325" r="14" fill="#06b6d4" opacity="0.3"/>
  <text x="1490" y="331" font-family="'Segoe UI','Helvetica Neue',Arial,sans-serif" font-size="15" fill="#ffffff" text-anchor="middle" font-weight="700">K</text>
  <text x="1518" y="331" font-family="'Segoe UI','Helvetica Neue',Arial,sans-serif" font-size="17" font-weight="600" fill="#e2e8f0">Kliniken &amp; Forschung</text>
  <text x="1485" y="370" font-family="'Segoe UI','Helvetica Neue',Arial,sans-serif" font-size="14" fill="#94a3b8">Studienpartner · Innovations-Scouting</text>
  <text x="1485" y="428" font-family="'Segoe UI','Helvetica Neue',Arial,sans-serif" font-size="13" fill="#06b6d4" font-weight="600">~2.000 Einrichtungen in DACH</text>

  <rect x="1460" y="565" width="410" height="245" rx="12" fill="url(#cardGrad2)" stroke="#6366f1" stroke-width="1" stroke-opacity="0.3"/>
  <circle cx="1490" cy="600" r="14" fill="#6366f1" opacity="0.3"/>
  <text x="1490" y="606" font-family="'Segoe UI','Helvetica Neue',Arial,sans-serif" font-size="15" fill="#ffffff" text-anchor="middle" font-weight="700">V</text>
  <text x="1518" y="606" font-family="'Segoe UI','Helvetica Neue',Arial,sans-serif" font-size="17" font-weight="600" fill="#e2e8f0">B2B-Vertriebsteams (MedTech)</text>
  <text x="1485" y="645" font-family="'Segoe UI','Helvetica Neue',Arial,sans-serif" font-size="14" fill="#94a3b8">Regulatorische Signale · Lead-Scoring</text>
  <text x="1485" y="703" font-family="'Segoe UI','Helvetica Neue',Arial,sans-serif" font-size="13" fill="#6366f1" font-weight="600">~5.000 Teams in DACH</text>

  <text x="960" y="915" font-family="'Segoe UI','Helvetica Neue',Arial,sans-serif" font-size="15" font-weight="600" fill="#06b6d4" letter-spacing="5" text-anchor="middle">MARKTPOTENTIAL</text>

  <g transform="translate(0, 952)">
    <rect x="180" y="0" width="380" height="78" rx="8" fill="#06b6d4" opacity="0.08" stroke="#06b6d4" stroke-width="1" stroke-opacity="0.3"/>
    <text x="370" y="24" font-family="'Segoe UI','Helvetica Neue',Arial,sans-serif" font-size="12" font-weight="700" fill="#06b6d4" text-anchor="middle" letter-spacing="2">TAM</text>
    <text x="370" y="50" font-family="'Segoe UI','Helvetica Neue',Arial,sans-serif" font-size="24" font-weight="700" fill="#ffffff" text-anchor="middle">€460 Mio.</text>
    <text x="370" y="68" font-family="'Segoe UI','Helvetica Neue',Arial,sans-serif" font-size="11" fill="#94a3b8" text-anchor="middle">MedTech · Europa 2028</text>

    <rect x="590" y="0" width="380" height="78" rx="8" fill="#6366f1" opacity="0.08" stroke="#6366f1" stroke-width="1" stroke-opacity="0.3"/>
    <text x="780" y="24" font-family="'Segoe UI','Helvetica Neue',Arial,sans-serif" font-size="12" font-weight="700" fill="#6366f1" text-anchor="middle" letter-spacing="2">SAM</text>
    <text x="780" y="50" font-family="'Segoe UI','Helvetica Neue',Arial,sans-serif" font-size="24" font-weight="700" fill="#ffffff" text-anchor="middle">€14–48 Mio.</text>
    <text x="780" y="68" font-family="'Segoe UI','Helvetica Neue',Arial,sans-serif" font-size="11" fill="#94a3b8" text-anchor="middle">DACH p.a.</text>

    <rect x="1000" y="0" width="380" height="78" rx="8" fill="url(#accent)" opacity="0.1" stroke="url(#accent)" stroke-width="1" stroke-opacity="0.3"/>
    <text x="1190" y="24" font-family="'Segoe UI','Helvetica Neue',Arial,sans-serif" font-size="12" font-weight="700" fill="#06b6d4" text-anchor="middle" letter-spacing="2">SOM Y3</text>
    <text x="1190" y="50" font-family="'Segoe UI','Helvetica Neue',Arial,sans-serif" font-size="24" font-weight="700" fill="#ffffff" text-anchor="middle">€144–288k</text>
    <text x="1190" y="68" font-family="'Segoe UI','Helvetica Neue',Arial,sans-serif" font-size="11" fill="#94a3b8" text-anchor="middle">Jährlich · 50–100 Kunden</text>
  </g>

  <rect width="1920" height="1080" fill="url(#vignette)" pointer-events="none"/>
</svg>
