<svg xmlns="http://www.w3.org/2000/svg" viewBox="0 0 1920 1080" width="1920" height="1080">
  <defs>
    <linearGradient id="bg" x1="0%" y1="0%" x2="100%" y2="100%">
      <stop offset="0%" stop-color="#0f172a"/>
      <stop offset="100%" stop-color="#1e293b"/>
    </linearGradient>
    <linearGradient id="accent" x1="0%" y1="0%" x2="100%" y2="100%">
      <stop offset="0%" stop-color="#06b6d4"/>
      <stop offset="100%" stop-color="#6366f1"/>
    </linearGradient>
    <linearGradient id="resGrad" x1="0%" y1="0%" x2="100%" y2="100%">
      <stop offset="0%" stop-color="#06b6d4" stop-opacity="0.12"/>
      <stop offset="100%" stop-color="#06b6d4" stop-opacity="0.04"/>
    </linearGradient>
    <linearGradient id="actGrad" x1="0%" y1="0%" x2="100%" y2="100%">
      <stop offset="0%" stop-color="#6366f1" stop-opacity="0.12"/>
      <stop offset="100%" stop-color="#6366f1" stop-opacity="0.04"/>
    </linearGradient>
    <linearGradient id="partGrad" x1="0%" y1="0%" x2="100%" y2="100%">
      <stop offset="0%" stop-color="#06b6d4" stop-opacity="0.10"/>
      <stop offset="100%" stop-color="#6366f1" stop-opacity="0.06"/>
    </linearGradient>
    <linearGradient id="connLine" x1="0%" y1="0%" x2="100%" y2="0%">
      <stop offset="0%" stop-color="#06b6d4" stop-opacity="0"/>
      <stop offset="30%" stop-color="#06b6d4" stop-opacity="0.25"/>
      <stop offset="50%" stop-color="#6366f1" stop-opacity="0.35"/>
      <stop offset="70%" stop-color="#6366f1" stop-opacity="0.25"/>
      <stop offset="100%" stop-color="#6366f1" stop-opacity="0"/>
    </linearGradient>
    <filter id="glow"><feGaussianBlur stdDeviation="6" result="b"/><feMerge><feMergeNode in="b"/><feMergeNode in="SourceGraphic"/></feMerge></filter>
    <radialGradient id="vignette" cx="50%" cy="50%" r="75%">
      <stop offset="55%" stop-color="#000" stop-opacity="0"/>
      <stop offset="100%" stop-color="#000" stop-opacity="0.35"/>
    </radialGradient>
  </defs>

  <rect width="1920" height="1080" fill="url(#bg)"/>
  <g opacity="0.03" stroke="#ffffff" stroke-width="0.5">
    <line x1="0" y1="180" x2="1920" y2="180"/><line x1="0" y1="360" x2="1920" y2="360"/>
    <line x1="0" y1="540" x2="1920" y2="540"/><line x1="0" y1="720" x2="1920" y2="720"/>
    <line x1="0" y1="900" x2="1920" y2="900"/>
    <line x1="320" y1="0" x2="320" y2="1080"/><line x1="640" y1="0" x2="640" y2="1080"/>
    <line x1="960" y1="0" x2="960" y2="1080"/><line x1="1280" y1="0" x2="1280" y2="1080"/>
    <line x1="1600" y1="0" x2="1600" y2="1080"/>
  </g>
  <rect x="0" y="0" width="1920" height="4" fill="url(#accent)"/>

  <g transform="translate(40, 30) scale(0.35)">
    <polygon points="140,0 260,75 260,225 140,300 20,225 20,75" fill="none" stroke="url(#accent)" stroke-width="3" opacity="0.25"/>
    <circle cx="140" cy="150" r="28" fill="url(#accent)" opacity="0.4"/>
  </g>

  <text x="960" y="130" font-family="'Segoe UI','Helvetica Neue',Arial,sans-serif" font-size="64" font-weight="700" fill="#ffffff" letter-spacing="12" text-anchor="middle" filter="url(#glow)">SCHLÜSSELFAKTOREN</text>
  <rect x="740" y="150" width="440" height="3" fill="url(#accent)" rx="1.5"/>

  <rect x="40" y="285" width="420" height="245" rx="10" fill="url(#resGrad)" stroke="#06b6d4" stroke-width="1" stroke-opacity="0.25"/>
  <text x="250" y="308" font-family="'Segoe UI',Arial,sans-serif" font-size="14" font-weight="700" fill="#06b6d4" letter-spacing="4" text-anchor="middle">RESSOURCEN</text>

  <rect x="55" y="322" width="390" height="36" rx="4" fill="#1e293b" opacity="0.5"/>
  <text x="68" y="337" font-family="'Segoe UI',Arial,sans-serif" font-size="11" font-weight="600" fill="#e2e8f0">Datenbank (Dgraph + PostgreSQL)</text>
  <text x="68" y="350" font-family="'Segoe UI',Arial,sans-serif" font-size="9" fill="#94a3b8">Semantische Verknüpfung · Graph-Traversal · Vektorsuche</text>

  <rect x="55" y="362" width="390" height="36" rx="4" fill="#1e293b" opacity="0.5"/>
  <text x="68" y="377" font-family="'Segoe UI',Arial,sans-serif" font-size="11" font-weight="600" fill="#e2e8f0">Souveräne Inferencing-Hardware (on-premise)</text>
  <text x="68" y="390" font-family="'Segoe UI',Arial,sans-serif" font-size="9" fill="#94a3b8">Offene KI-Modelle · Eigene Hardware · Datenschutz</text>

  <rect x="55" y="402" width="390" height="36" rx="4" fill="#1e293b" opacity="0.5"/>
  <text x="68" y="417" font-family="'Segoe UI',Arial,sans-serif" font-size="11" font-weight="600" fill="#e2e8f0">Crawler-Adapter</text>
  <text x="68" y="430" font-family="'Segoe UI',Arial,sans-serif" font-size="9" fill="#94a3b8">FDA · EUDAMED · ClinicalTrials · Patentämter · NB-Daten</text>

  <rect x="55" y="442" width="390" height="36" rx="4" fill="#1e293b" opacity="0.5"/>
  <text x="68" y="457" font-family="'Segoe UI',Arial,sans-serif" font-size="11" font-weight="600" fill="#e2e8f0">ORSD Dataset (6 Tabellen)</text>
  <text x="68" y="470" font-family="'Segoe UI',Arial,sans-serif" font-size="9" fill="#94a3b8">5k Companies · 50k Signals · 10k Trials · 20k Patents</text>

  <rect x="55" y="482" width="390" height="36" rx="4" fill="#1e293b" opacity="0.5"/>
  <text x="68" y="497" font-family="'Segoe UI',Arial,sans-serif" font-size="11" font-weight="600" fill="#e2e8f0">Scoring Engine + AI Agents</text>
  <text x="68" y="510" font-family="'Segoe UI',Arial,sans-serif" font-size="9" fill="#94a3b8">Embedding-Tuning · Graph-Traversal · HOT/WARM/COLD</text>

  <rect x="40" y="555" width="420" height="245" rx="10" fill="url(#partGrad)" stroke="url(#accent)" stroke-width="1" stroke-opacity="0.2"/>
  <text x="250" y="578" font-family="'Segoe UI',Arial,sans-serif" font-size="14" font-weight="700" fill="#06b6d4" letter-spacing="4" text-anchor="middle">PARTNER</text>

  <rect x="55" y="592" width="390" height="36" rx="4" fill="#1e293b" opacity="0.5"/>
  <text x="68" y="607" font-family="'Segoe UI',Arial,sans-serif" font-size="11" font-weight="600" fill="#e2e8f0">Hetzner (Hosting)</text>
  <text x="68" y="620" font-family="'Segoe UI',Arial,sans-serif" font-size="9" fill="#94a3b8">VPS + Docker · EU-Hosting · Datenschutz</text>

  <rect x="55" y="632" width="390" height="36" rx="4" fill="#1e293b" opacity="0.5"/>
  <text x="68" y="647" font-family="'Segoe UI',Arial,sans-serif" font-size="11" font-weight="600" fill="#e2e8f0">z.ai (API-Fallback)</text>
  <text x="68" y="660" font-family="'Segoe UI',Arial,sans-serif" font-size="9" fill="#94a3b8">Peak-Last · Backup-Inferenz</text>

  <rect x="55" y="672" width="390" height="36" rx="4" fill="#1e293b" opacity="0.5"/>
  <text x="68" y="687" font-family="'Segoe UI',Arial,sans-serif" font-size="11" font-weight="600" fill="#e2e8f0">viele öffentliche Datenquellen</text>
  <text x="68" y="700" font-family="'Segoe UI',Arial,sans-serif" font-size="9" fill="#94a3b8">FDA · EUDAMED · ClinicalTrials · Patentämter</text>

  <rect x="55" y="712" width="390" height="36" rx="4" fill="#1e293b" opacity="0.5"/>
  <text x="68" y="727" font-family="'Segoe UI',Arial,sans-serif" font-size="11" font-weight="600" fill="#e2e8f0">Universität Gießen (LOEWE)</text>
  <text x="68" y="740" font-family="'Segoe UI',Arial,sans-serif" font-size="9" fill="#94a3b8">Forschungsverbund · LOEWE-Förderlinie 3</text>

  <rect x="55" y="752" width="390" height="36" rx="4" fill="#1e293b" opacity="0.5"/>
  <text x="68" y="767" font-family="'Segoe UI',Arial,sans-serif" font-size="11" font-weight="600" fill="#e2e8f0">DFN (Dienste)</text>
  <text x="68" y="780" font-family="'Segoe UI',Arial,sans-serif" font-size="9" fill="#94a3b8">Forschungskommunikation · Netzwerkinfrastruktur</text>

  <!-- Connection indicator: RESSOURCEN → AKTIVITÄTEN -->
  <rect x="460" y="800" width="1000" height="3" rx="1.5" fill="url(#connLine)"/>

  <rect x="1460" y="285" width="420" height="540" rx="10" fill="url(#actGrad)" stroke="#6366f1" stroke-width="1" stroke-opacity="0.25"/>
  <text x="1670" y="308" font-family="'Segoe UI',Arial,sans-serif" font-size="14" font-weight="700" fill="#6366f1" letter-spacing="4" text-anchor="middle">AKTIVITÄTEN</text>

  <rect x="1475" y="322" width="390" height="36" rx="4" fill="#1e293b" opacity="0.5"/>
  <text x="1488" y="337" font-family="'Segoe UI',Arial,sans-serif" font-size="11" font-weight="600" fill="#e2e8f0">Crawler-Wartung &amp; Quellen-Pflege</text>
  <text x="1488" y="350" font-family="'Segoe UI',Arial,sans-serif" font-size="9" fill="#94a3b8">24/7 Monitoring · Adapter-Updates · Fehlerbehandlung</text>

  <rect x="1475" y="362" width="390" height="36" rx="4" fill="#1e293b" opacity="0.5"/>
  <text x="1488" y="377" font-family="'Segoe UI',Arial,sans-serif" font-size="11" font-weight="600" fill="#e2e8f0">Embedding- &amp; Scoring-Tuning</text>
  <text x="1488" y="390" font-family="'Segoe UI',Arial,sans-serif" font-size="9" fill="#94a3b8">Domain-Adaptierte Embeddings · Precision-Optimierung</text>

  <rect x="1475" y="402" width="390" height="36" rx="4" fill="#1e293b" opacity="0.5"/>
  <text x="1488" y="417" font-family="'Segoe UI',Arial,sans-serif" font-size="11" font-weight="600" fill="#e2e8f0">AI-Agent-Entwicklung</text>
  <text x="1488" y="430" font-family="'Segoe UI',Arial,sans-serif" font-size="9" fill="#94a3b8">Automated Outreach · Signal-Matching · Wettbewerbsanalyse</text>

  <rect x="1475" y="442" width="390" height="36" rx="4" fill="#1e293b" opacity="0.5"/>
  <text x="1488" y="457" font-family="'Segoe UI',Arial,sans-serif" font-size="11" font-weight="600" fill="#e2e8f0">Content-Marketing</text>
  <text x="1488" y="470" font-family="'Segoe UI',Arial,sans-serif" font-size="9" fill="#94a3b8">Blog · MDR/IVDR-Guides · LinkedIn · Case Studies</text>

  <rect x="1475" y="482" width="390" height="36" rx="4" fill="#1e293b" opacity="0.5"/>
  <text x="1488" y="497" font-family="'Segoe UI',Arial,sans-serif" font-size="11" font-weight="600" fill="#e2e8f0">ORSD Community-Management</text>
  <text x="1488" y="510" font-family="'Segoe UI',Arial,sans-serif" font-size="9" fill="#94a3b8">GitHub · Docs · Contributions · Offene Lizenz</text>

  <rect x="0" y="880" width="1920" height="200" fill="#1e293b" opacity="0.5"/>

  <g transform="translate(960, 955)">
    <rect x="-280" y="-22" width="560" height="60" rx="30" fill="url(#accent)" opacity="0.10" stroke="url(#accent)" stroke-width="1"/>
    <text x="0" y="6" font-family="'Segoe UI',Arial,sans-serif" font-size="17" fill="#e2e8f0" text-anchor="middle">
      <tspan font-weight="700" fill="#06b6d4">SELF-BOOTSTRAP</tspan>
      <tspan fill="#94a3b8"> — Nebenerwerb · Kein Fremdkapital · Break-Even bei ~5 Kunden</tspan>
    </text>
  </g>
  <text x="960" y="1005" font-family="'Segoe UI',Arial,sans-serif" font-size="13" fill="#64748b" text-anchor="middle">Das Geschäftsmodell trägt sich selbst, bevor es groß werden muss.</text>

  <rect width="1920" height="1080" fill="url(#vignette)" pointer-events="none"/>
</svg>
